<svg xmlns="http://www.w3.org/2000/svg" viewBox="0 0 800 800">
  <path d="M 831.55,400.00 C 842.51,423.78 842.44,452.77 837.46,477.14 C 832.48,501.50 818.04,526.41 801.67,546.20 C 785.31,565.99 759.38,580.94 739.28,595.88 C 719.18,610.82 703.15,627.42 681.06,635.84 C 658.98,644.26 630.96,646.50 606.76,646.41 C 582.56,646.33 557.30,640.60 535.87,635.33 C 514.44,630.06 494.20,616.42 478.19,614.81 C 462.17,613.21 452.83,616.53 439.80,625.73 C 426.77,634.92 416.75,650.27 400.00,670.00 C 383.25,689.73 363.40,722.96 339.33,744.09 C 315.26,765.22 284.36,786.78 255.58,796.79 C 226.80,806.80 191.27,812.27 166.65,804.17 C 142.04,796.06 121.21,771.68 107.87,748.14 C 94.54,724.60 88.32,691.88 86.65,662.93 C 84.99,633.98 90.54,601.92 97.86,574.44 C 105.19,546.96 118.08,520.46 130.59,498.06 C 143.11,475.65 157.65,456.37 172.97,440.03 C 188.29,423.69 206.93,410.60 222.51,400.00 C 238.10,389.40 259.63,384.73 266.48,376.46 C 273.33,368.18 272.16,364.22 263.61,350.36 C 255.06,336.50 233.01,319.06 215.16,293.28 C 197.31,267.50 172.48,233.64 156.51,195.69 C 140.54,157.73 121.11,104.82 119.37,65.56 C 117.63,26.30 129.07,-13.75 146.05,-39.86 C 163.03,-65.97 193.57,-81.34 221.24,-91.13 C 248.92,-100.92 282.29,-102.81 312.08,-98.61 C 341.87,-94.42 373.46,-81.62 400.00,-65.95 C 426.54,-50.28 451.74,-28.39 471.34,-4.57 C 490.93,19.24 506.89,48.63 517.59,76.94 C 528.28,105.25 533.20,137.56 535.51,165.29 C 537.82,193.02 530.69,223.81 531.46,243.34 C 532.23,262.86 530.88,274.30 540.12,282.43 C 549.36,290.55 562.95,289.72 586.89,292.10 C 610.83,294.48 652.97,289.66 683.77,296.72 C 714.58,303.77 747.09,317.24 771.72,334.46 C 796.35,351.67 820.59,376.22 831.55,400.00 Z" fill="#E8E8E8"/>
  <path d="M 788.79,400.00 C 797.70,421.41 796.32,447.31 790.93,468.93 C 785.53,490.55 770.79,511.90 756.42,529.72 C 742.04,547.55 722.64,562.76 704.66,575.90 C 686.68,589.03 668.90,601.62 648.53,608.54 C 628.15,615.46 603.77,617.40 582.41,617.39 C 561.05,617.38 539.00,612.39 520.36,608.48 C 501.72,604.56 484.89,596.04 470.58,593.91 C 456.27,591.78 446.27,587.78 434.51,595.71 C 422.75,603.64 414.83,622.60 400.00,641.47 C 385.17,660.35 366.94,690.36 345.52,708.97 C 324.10,727.58 297.55,743.74 271.46,753.15 C 245.38,762.55 210.70,772.92 189.03,765.40 C 167.37,757.89 152.06,730.61 141.49,708.08 C 130.93,685.54 127.16,655.81 125.66,630.20 C 124.16,604.59 126.71,578.27 132.52,554.43 C 138.33,530.59 149.35,507.01 160.52,487.16 C 171.69,467.31 184.88,449.87 199.54,435.35 C 214.20,420.82 234.51,409.32 248.47,400.00 C 262.43,390.68 277.74,386.59 283.31,379.43 C 288.89,372.26 289.18,369.01 281.93,357.02 C 274.68,345.04 256.44,330.81 239.81,307.52 C 223.19,284.22 196.42,250.60 182.18,217.23 C 167.95,183.86 155.01,140.79 154.38,107.28 C 153.75,73.77 164.19,40.82 178.39,16.17 C 192.60,-8.48 215.46,-32.19 239.62,-40.63 C 263.79,-49.07 296.66,-41.06 323.39,-34.47 C 350.12,-27.88 377.01,-15.52 400.00,-1.10 C 422.99,13.32 443.84,33.31 461.35,52.06 C 478.86,70.81 495.66,87.38 505.04,111.41 C 514.42,135.43 515.87,171.12 517.64,196.24 C 519.42,221.36 514.91,245.27 515.70,262.11 C 516.50,278.95 513.91,290.35 522.41,297.28 C 530.92,304.22 545.68,301.71 566.72,303.74 C 587.77,305.77 620.23,303.36 648.69,309.48 C 677.15,315.61 714.12,325.41 737.47,340.50 C 760.82,355.58 779.88,378.59 788.79,400.00 Z" fill="#4EAD9E"/>
  <path d="M 738.07,400.00 C 747.34,418.54 748.09,441.77 743.29,460.53 C 738.49,479.29 721.81,496.85 709.29,512.57 C 696.78,528.29 683.64,543.30 668.22,554.86 C 652.80,566.41 635.26,576.45 616.78,581.90 C 598.31,587.35 575.82,587.24 557.38,587.56 C 538.94,587.88 522.06,586.79 506.13,583.81 C 490.19,580.84 474.48,572.09 461.78,569.73 C 449.08,567.38 440.22,563.41 429.92,569.69 C 419.62,575.97 412.95,590.54 400.00,607.43 C 387.05,624.32 370.87,654.34 352.21,671.03 C 333.55,687.72 310.08,700.78 288.06,707.56 C 266.03,714.34 238.30,718.96 220.04,711.70 C 201.78,704.44 188.09,682.72 178.48,664.00 C 168.87,645.28 164.35,620.94 162.36,599.40 C 160.37,577.87 161.57,555.42 166.53,534.80 C 171.48,514.17 182.76,492.92 192.11,475.67 C 201.46,458.41 210.14,443.89 222.62,431.28 C 235.10,418.67 254.42,408.21 267.00,400.00 C 279.58,391.79 293.69,388.49 298.12,382.04 C 302.55,375.58 299.78,371.66 293.56,361.26 C 287.34,350.86 274.47,339.53 260.81,319.64 C 247.14,299.74 224.27,271.28 211.57,241.89 C 198.87,212.50 186.18,174.07 184.62,143.32 C 183.06,112.57 189.15,77.38 202.20,57.40 C 215.25,37.41 241.43,31.35 262.93,23.40 C 284.42,15.45 308.33,5.70 331.18,9.70 C 354.02,13.69 379.54,33.32 400.00,47.37 C 420.46,61.42 439.17,75.84 453.96,93.98 C 468.75,112.13 480.93,134.32 488.72,156.25 C 496.51,178.18 498.88,204.74 500.70,225.57 C 502.53,246.41 498.60,267.13 499.65,281.24 C 500.70,295.35 499.45,304.38 506.99,310.23 C 514.53,316.08 527.15,314.33 544.89,316.35 C 562.64,318.36 589.66,316.82 613.46,322.31 C 637.25,327.80 666.89,336.33 687.66,349.28 C 708.43,362.23 728.80,381.46 738.07,400.00 Z" fill="#2A9C9E"/>
  <path d="M 690.48,400.00 C 698.36,415.88 698.48,435.89 693.78,451.80 C 689.08,467.71 673.23,482.15 662.29,495.46 C 651.34,508.78 641.36,522.05 628.12,531.71 C 614.88,541.37 598.70,548.96 582.85,553.43 C 567.00,557.90 548.62,558.33 533.02,558.53 C 517.42,558.72 502.78,557.25 489.26,554.60 C 475.74,551.94 462.51,544.15 451.90,542.59 C 441.29,541.03 434.26,539.82 425.61,545.24 C 416.96,550.66 411.02,561.01 400.00,575.12 C 388.98,589.22 375.59,614.76 359.47,629.87 C 343.35,644.98 322.32,659.38 303.27,665.78 C 284.21,672.17 261.66,673.62 245.13,668.25 C 228.59,662.87 212.45,649.53 204.05,633.52 C 195.66,617.52 195.71,591.73 194.76,572.22 C 193.80,552.70 193.87,534.31 198.31,516.44 C 202.76,498.57 213.01,479.96 221.41,465.00 C 229.81,450.04 237.93,437.51 248.72,426.67 C 259.51,415.84 275.81,407.07 286.16,400.00 C 296.52,392.93 306.63,389.65 310.85,384.28 C 315.07,378.91 316.44,376.61 311.46,367.77 C 306.48,358.94 293.02,348.40 280.97,331.28 C 268.92,314.15 249.92,290.06 239.14,265.03 C 228.37,239.99 217.01,206.24 216.30,181.07 C 215.59,155.91 223.92,131.51 234.90,114.04 C 245.88,96.56 264.29,83.29 282.15,76.22 C 300.02,69.16 322.46,67.56 342.10,71.66 C 361.75,75.76 382.56,90.26 400.00,100.82 C 417.44,111.37 433.88,120.44 446.73,135.00 C 459.58,149.56 470.46,168.99 477.10,188.17 C 483.73,207.36 484.90,232.07 486.54,250.11 C 488.18,268.14 486.47,283.91 486.94,296.39 C 487.41,308.87 483.47,319.51 489.37,325.01 C 495.27,330.50 506.74,327.97 522.35,329.36 C 537.96,330.75 562.36,328.85 583.05,333.37 C 603.74,337.90 628.59,345.43 646.50,356.54 C 664.40,367.64 682.60,384.12 690.48,400.00 Z" fill="#047E8E"/>
  <path d="M 638.40,400.00 C 644.43,413.31 647.51,429.74 644.51,443.11 C 641.51,456.48 629.97,469.40 620.39,480.22 C 610.81,491.03 598.10,499.82 587.05,507.99 C 575.99,516.17 566.74,525.23 554.05,529.27 C 541.37,533.30 524.16,532.19 510.93,532.20 C 497.70,532.21 486.11,532.00 474.67,529.33 C 463.23,526.67 451.24,517.90 442.29,516.19 C 433.34,514.48 428.04,513.78 421.00,519.07 C 413.95,524.36 409.07,536.21 400.00,547.95 C 390.93,559.68 379.66,578.23 366.59,589.46 C 353.53,600.70 337.52,609.74 321.61,615.37 C 305.70,621.00 284.56,627.54 271.12,623.23 C 257.67,618.93 248.05,602.78 240.94,589.56 C 233.83,576.34 229.13,559.84 228.47,543.93 C 227.81,528.02 233.37,509.02 236.98,494.12 C 240.59,479.22 243.65,466.58 250.14,454.54 C 256.63,442.50 266.91,430.97 275.92,421.88 C 284.94,412.79 295.71,405.79 304.24,400.00 C 312.77,394.21 323.59,391.67 327.10,387.15 C 330.62,382.62 329.64,380.18 325.36,372.83 C 321.08,365.49 311.07,357.09 301.43,343.09 C 291.79,329.09 276.52,309.66 267.51,288.83 C 258.50,267.99 247.94,238.82 247.35,218.08 C 246.76,197.33 254.43,177.77 263.97,164.38 C 273.50,150.99 289.76,143.22 304.54,137.74 C 319.33,132.26 336.75,129.91 352.66,131.50 C 368.57,133.09 385.68,139.00 400.00,147.29 C 414.32,155.57 428.25,167.46 438.58,181.22 C 448.90,194.97 456.39,214.11 461.94,229.81 C 467.50,245.51 470.26,261.35 471.91,275.44 C 473.57,289.54 471.29,304.14 471.86,314.36 C 472.44,324.58 470.54,332.19 475.38,336.75 C 480.21,341.32 487.79,340.55 500.89,341.75 C 513.99,342.95 536.07,340.37 553.97,343.96 C 571.88,347.54 594.27,353.92 608.34,363.26 C 622.41,372.60 632.37,386.69 638.40,400.00 Z" fill="#276176"/>
  <path d="M 585.78,400.00 C 590.47,410.50 595.34,423.65 592.80,434.00 C 590.27,444.34 578.43,453.73 570.59,462.09 C 562.74,470.45 554.11,477.66 545.73,484.14 C 537.34,490.61 529.73,497.27 520.28,500.93 C 510.83,504.59 499.54,506.41 489.02,506.09 C 478.50,505.76 466.30,501.06 457.15,498.99 C 448.00,496.92 440.88,494.61 434.10,493.69 C 427.32,492.78 422.17,489.99 416.49,493.50 C 410.80,497.02 407.06,505.90 400.00,514.78 C 392.94,523.67 384.39,537.70 374.11,546.83 C 363.83,555.95 350.47,565.43 338.30,569.53 C 326.12,573.62 311.53,574.89 301.05,571.39 C 290.56,567.90 281.50,558.11 275.37,548.53 C 269.24,538.95 264.84,526.33 264.26,513.90 C 263.68,501.47 268.82,485.84 271.87,473.98 C 274.92,462.12 277.54,452.19 282.58,442.74 C 287.62,433.28 294.76,424.38 302.14,417.26 C 309.51,410.13 320.22,404.58 326.85,400.00 C 333.49,395.42 339.58,393.34 341.96,389.77 C 344.34,386.20 344.40,384.33 341.15,378.58 C 337.90,372.83 330.30,366.47 322.48,355.24 C 314.66,344.02 301.60,327.97 294.22,311.24 C 286.85,294.51 278.78,271.57 278.22,254.87 C 277.67,238.17 283.50,222.26 290.91,211.04 C 298.32,199.83 310.80,191.81 322.69,187.58 C 334.57,183.35 349.32,182.99 362.21,185.67 C 375.09,188.36 388.72,196.23 400.00,203.70 C 411.28,211.17 421.70,220.27 429.89,230.50 C 438.07,240.72 444.74,253.01 449.11,265.07 C 453.48,277.12 455.11,291.27 456.10,302.83 C 457.10,314.38 454.39,326.59 455.06,334.38 C 455.73,342.17 456.03,346.28 460.11,349.56 C 464.19,352.84 469.48,352.97 479.56,354.06 C 489.65,355.15 506.43,353.28 520.61,356.10 C 534.79,358.92 553.80,363.65 564.66,370.97 C 575.52,378.28 581.09,389.50 585.78,400.00 Z" fill="#2F4858"/>
  <path d="M 538.50,400.00 C 542.59,407.64 544.47,417.48 542.28,425.09 C 540.09,432.69 531.28,439.53 525.36,445.63 C 519.44,451.72 513.00,456.94 506.78,461.65 C 500.56,466.36 495.03,471.27 488.04,473.87 C 481.05,476.47 472.28,477.06 464.82,477.26 C 457.37,477.45 450.04,476.69 443.32,475.03 C 436.59,473.37 429.67,468.22 424.49,467.28 C 419.31,466.34 416.32,466.60 412.23,469.38 C 408.15,472.16 405.22,477.52 400.00,483.98 C 394.78,490.43 388.46,501.44 380.94,508.10 C 373.42,514.76 364.16,520.39 354.89,523.93 C 345.62,527.47 332.89,532.02 325.33,529.34 C 317.76,526.66 313.29,515.79 309.50,507.85 C 305.72,499.91 303.06,490.72 302.63,481.70 C 302.20,472.68 304.90,462.18 306.94,453.73 C 308.99,445.27 311.10,437.86 314.91,430.97 C 318.71,424.08 324.68,417.55 329.77,412.38 C 334.85,407.22 340.62,403.28 345.43,400.00 C 350.24,396.72 356.59,395.28 358.63,392.71 C 360.66,390.14 360.51,389.01 357.63,384.58 C 354.76,380.15 347.17,374.37 341.36,366.14 C 335.55,357.92 327.51,346.84 322.80,335.22 C 318.09,323.60 313.57,308.73 313.10,296.44 C 312.64,284.15 314.93,270.02 320.02,261.48 C 325.12,252.93 334.96,248.42 343.65,245.18 C 352.34,241.95 362.77,240.44 372.16,242.09 C 381.55,243.74 391.72,249.40 400.00,255.07 C 408.28,260.74 415.86,268.40 421.85,276.10 C 427.84,283.80 432.50,292.87 435.94,301.26 C 439.37,309.66 441.67,318.09 442.45,326.47 C 443.24,334.85 440.53,345.34 440.65,351.56 C 440.77,357.77 440.28,361.28 443.19,363.76 C 446.09,366.25 450.72,365.73 458.08,366.47 C 465.43,367.21 477.38,366.09 487.33,368.21 C 497.29,370.34 509.25,373.93 517.78,379.23 C 526.31,384.53 534.42,392.36 538.50,400.00 Z" fill="#2F4858"/>
</svg>